<svg xmlns="http://www.w3.org/2000/svg" viewBox="0 0 46.1 45.37" width="44px" height="44px"><defs><style>.cls-1{fill:#fff;}</style></defs><g id="Layer_2" data-name="Layer 2"><g id="Layer_1-2" data-name="Layer 1"><path class="cls-1" d="M27.35,33.6c1.23-.28,2.42-.49,3.57-.84a9,9,0,0,0,6.61-7.69,12.66,12.66,0,0,0-.16-5.87,8.31,8.31,0,0,0-1.64-3,.74.74,0,0,1-.18-.82A8.44,8.44,0,0,0,35.29,10a.72.72,0,0,0-.54-.38,9.25,9.25,0,0,0-2.29.49c-1.12.47-2.17,1.13-3.26,1.67a1.26,1.26,0,0,1-.8.14,22.69,22.69,0,0,0-10.65,0,1.26,1.26,0,0,1-.85-.14A13.32,13.32,0,0,0,12,9.62c-1-.16-1.08-.1-1.35.84a8.7,8.7,0,0,0-.06,5,.7.7,0,0,1-.1.53c-2.07,2.46-2.42,5.33-2,8.38a10.65,10.65,0,0,0,2.06,5.36,10.11,10.11,0,0,0,6.15,3.43c.67.14,1.35.23,2.09.36a5.52,5.52,0,0,0-1.36,2.82.69.69,0,0,1-.37.4,4.73,4.73,0,0,1-6.34-2,4.76,4.76,0,0,0-3.26-2.39,2.26,2.26,0,0,0-.86,0c-.59.13-.67.43-.23.87a2.48,2.48,0,0,0,.5.42,5.21,5.21,0,0,1,2.4,2.91c.9,2.68,3.53,3.84,6.34,3.57.55,0,1.08-.13,1.71-.21,0,1.51,0,3,0,4.43,0,.82-.8,1.19-1.69.89A21,21,0,0,1,10,42.43,22.84,22.84,0,0,1,0,22.32a23,23,0,0,1,45.67-3.48,23.29,23.29,0,0,1-15,26.36c-1.29.46-1.93,0-1.92-1.37,0-1.93,0-3.85,0-5.77A6,6,0,0,0,27.35,33.6Z"/></g></g></svg>