<svg xmlns="http://www.w3.org/2000/svg" viewBox="0 0 46 46" width="44px" height="44px"><defs><style>.cls-1{fill:#fff;}</style></defs><g id="Layer_2" data-name="Layer 2"><g id="Layer_1-2" data-name="Layer 1"><path class="cls-1" d="M23,0A23,23,0,1,0,46,23,23,23,0,0,0,23,0ZM16,29.85a2.51,2.51,0,0,1-.57,1.79,1.84,1.84,0,0,1-1.43.61,1.79,1.79,0,0,1-1.41-.62,2.65,2.65,0,0,1-.54-1.78V18.54a2.52,2.52,0,0,1,.54-1.76A1.8,1.8,0,0,1,14,16.19a1.86,1.86,0,0,1,1.43.59A2.27,2.27,0,0,1,16,18.43Zm-.58-16a2,2,0,0,1-1.38.52,2.07,2.07,0,0,1-1.41-.51,1.78,1.78,0,0,1-.58-1.43,1.77,1.77,0,0,1,.6-1.38,2,2,0,0,1,1.39-.55,2.06,2.06,0,0,1,1.36.5,1.73,1.73,0,0,1,.6,1.43A1.81,1.81,0,0,1,15.43,13.83Zm18.62,16a2.61,2.61,0,0,1-.54,1.79,1.78,1.78,0,0,1-1.41.61,1.82,1.82,0,0,1-1.43-.62,2.6,2.6,0,0,1-.55-1.78V23.26a6.48,6.48,0,0,0-.55-3,2.2,2.2,0,0,0-2.16-1,3.18,3.18,0,0,0-1.92.63,3.59,3.59,0,0,0-1.28,1.73,12.52,12.52,0,0,0-.29,3.3v5a2.57,2.57,0,0,1-.55,1.8,1.9,1.9,0,0,1-1.44.6,1.82,1.82,0,0,1-1.41-.62A2.65,2.65,0,0,1,20,29.85V18.43a2.54,2.54,0,0,1,.49-1.69,1.71,1.71,0,0,1,1.35-.55,1.85,1.85,0,0,1,.94.24,1.73,1.73,0,0,1,.67.74,2.59,2.59,0,0,1,.26,1.2v.48a6.8,6.8,0,0,1,2.28-2,6,6,0,0,1,2.84-.64,5.6,5.6,0,0,1,2.79.68,4.27,4.27,0,0,1,1.84,1.92,4.62,4.62,0,0,1,.51,1.56,17.83,17.83,0,0,1,.11,2.15Z"/></g></g></svg>