<svg xmlns="http://www.w3.org/2000/svg" viewBox="0 0 46 46" width="44px" height="44px"><defs><style>.cls-1{fill:#fff;}</style></defs><g id="Layer_2" data-name="Layer 2"><g id="Layer_1-2" data-name="Layer 1"><path class="cls-1" d="M23,0A23,23,0,1,0,46,23,23,23,0,0,0,23,0ZM9.09,13.11H36.9a10.55,10.55,0,0,1,1.16.14L35.19,15.7,24,25.21a1.35,1.35,0,0,1-2.09,0L8.51,13.73,8,13.25A8.7,8.7,0,0,1,9.09,13.11ZM36.83,32.89H9.21a2.33,2.33,0,0,1-2.56-2.55c0-4.91,0-9.82,0-14.73,0-.39.1-.78.17-1.31l1.51,1.26,12.6,10.75a2.75,2.75,0,0,0,4.12,0l13.7-11.66c.1-.09.22-.16.43-.32a9.63,9.63,0,0,1,.18,1.25q0,7.4,0,14.78A2.32,2.32,0,0,1,36.83,32.89Z"/></g></g></svg>